<svg width="0" height="0" class="hidden">
  <symbol fill="none" xmlns="http://www.w3.org/2000/svg" viewBox="0 0 70 71" id="Facebook">
    <g filter="url(#filter0_d)">
      <circle cx="34.8" cy="22.381" r="16.8" fill="#F53838"></circle>
    </g>
    <path d="M34.8 5.58c-9.278 0-16.8 7.522-16.8 16.8 0 9.28 7.521 16.8 16.8 16.8s16.8-7.52 16.8-16.8c0-9.278-7.522-16.8-16.8-16.8zm3.98 11.61h-2.526c-.299 0-.631.394-.631.917v1.824h3.158l-.477 2.6h-2.681v7.807h-2.98V22.53h-2.704v-2.6h2.703V18.4c0-2.194 1.523-3.978 3.612-3.978h2.526v2.767z" fill="#fff"></path>
    <defs>
      <filter id="filter0_d" x="0" y=".581" width="69.6" height="69.6" filterUnits="userSpaceOnUse" color-interpolation-filters="sRGB">
        <feFlood flood-opacity="0" result="BackgroundImageFix"></feFlood>
        <feColorMatrix in="SourceAlpha" values="0 0 0 0 0 0 0 0 0 0 0 0 0 0 0 0 0 0 127 0"></feColorMatrix>
        <feOffset dy="13"></feOffset>
        <feGaussianBlur stdDeviation="9"></feGaussianBlur>
        <feColorMatrix values="0 0 0 0 0.0658854 0 0 0 0 0.0730469 0 0 0 0 0.1375 0 0 0 0.08 0"></feColorMatrix>
        <feBlend in2="BackgroundImageFix" result="effect1_dropShadow"></feBlend>
        <feBlend in="SourceGraphic" in2="effect1_dropShadow" result="shape"></feBlend>
      </filter>
    </defs>
  </symbol>
    <symbol xmlns="http://www.w3.org/2000/svg" viewBox="0 0 35 37" id="logo">
    <path d="M31.147 13.648l-.021-.022a.013.013 0 01-.005-.005L17.502 0 3.88 13.62l-.004.006-.023.021a13.245 13.245 0 0013.283 22 1.26 1.26 0 01.73 0 13.243 13.243 0 0017.04-14.242 13.246 13.246 0 00-3.759-7.757zM8.723 22.63a.714.714 0 00-.209.505 13.219 13.219 0 001.965 6.802.258.258 0 01-.317.375 7.947 7.947 0 01-2.543-12.938L17.5 7.493l9.882 9.881a7.945 7.945 0 01-.007 11.231 7.922 7.922 0 01-2.536 1.707.26.26 0 01-.318-.375 13.22 13.22 0 001.966-6.802.713.713 0 00-.21-.505l-4.674-4.958a.26.26 0 00-.391.326c1.815 3.285.254 8.004-2.35 10.607l-.013.014a1.918 1.918 0 01-2.7 0l-.012-.014c-2.604-2.603-4.164-7.322-2.349-10.607a.258.258 0 00-.39-.326L8.722 22.63z" ></path>
  </symbol>
    <symbol fill="none" xmlns="http://www.w3.org/2000/svg" viewBox="0 0 17 19" id="user">
    <path fill-rule="evenodd" clip-rule="evenodd" d="M8.5 7.35a3.6 3.6 0 100-7.2 3.6 3.6 0 000 7.2zm-5.101 10.8c-1.822 0-3.357-1.532-2.66-3.215a8.4 8.4 0 0115.522 0c.697 1.683-.838 3.214-2.66 3.214H3.4z" fill="#F53838"></path>
  </symbol>
</svg>
